<?xml version="1.0" encoding="UTF-8" standalone="no"?><!DOCTYPE svg PUBLIC "-//W3C//DTD SVG 1.1//EN" "http://www.w3.org/Graphics/SVG/1.1/DTD/svg11.dtd"><svg width="100%" height="100%" viewBox="0 0 1024 1024" version="1.1" xmlns="http://www.w3.org/2000/svg" xmlns:xlink="http://www.w3.org/1999/xlink" xml:space="preserve" xmlns:serif="http://www.serif.com/" style="fill-rule:evenodd;clip-rule:evenodd;stroke-linejoin:round;stroke-miterlimit:2;"><path d="M104,325.714l0,-57.549l328.995,-0l-0,57.549l-328.995,-0Zm0,151.025l293.401,-0l-0,57.549l-228.866,-0l-0,221.547l-64.535,0l0,-279.096Zm412.823,-151.025l0,-57.549l167.991,-0c37.922,-0 66.863,2.328 86.822,6.985c27.943,6.432 51.783,18.075 71.521,34.929c25.725,21.733 44.964,49.51 57.715,83.33c12.752,33.82 19.128,72.463 19.128,115.93c0,37.035 -4.325,69.857 -12.974,98.465c-8.649,28.609 -19.737,52.282 -33.265,71.022c-13.528,18.739 -28.331,33.487 -44.409,44.243c-16.078,10.756 -35.483,18.906 -58.215,24.45c-22.731,5.544 -48.844,8.316 -78.34,8.316l-175.974,0l0,-57.34l68.095,-0l-0,-0.209l100.561,0c32.157,0 57.383,-2.994 75.679,-8.981c18.296,-5.988 32.877,-14.415 43.744,-25.282c15.302,-15.302 27.222,-35.871 35.76,-61.707c8.538,-25.837 12.807,-57.161 12.807,-93.975c0,-51.007 -8.372,-90.205 -25.115,-117.593c-16.744,-27.389 -37.091,-45.74 -61.042,-55.055c-17.298,-6.653 -45.13,-9.979 -83.496,-9.979l-166.993,-0Z" style="fill:#2e3845;"/><path d="M104,325.714l0,-57.549l328.995,-0l-0,57.549l-328.995,-0Zm412.823,-0l0,-57.549l167.991,-0c37.922,-0 66.863,2.328 86.822,6.985c27.943,6.432 51.783,18.075 71.521,34.929c25.725,21.733 44.964,49.51 57.715,83.33c12.752,33.82 19.128,72.463 19.128,115.93c0,37.035 -4.325,69.857 -12.974,98.465c-8.649,28.609 -19.737,52.282 -33.265,71.022c-13.528,18.739 -28.331,33.487 -44.409,44.243c-16.078,10.756 -35.483,18.906 -58.215,24.45c-22.731,5.544 -48.844,8.316 -78.34,8.316l-175.974,0l0,-57.34l68.095,-0l-0,-0.209l100.561,0c32.157,0 57.383,-2.994 75.679,-8.981c18.296,-5.988 32.877,-14.415 43.744,-25.282c15.302,-15.302 27.222,-35.871 35.76,-61.707c8.538,-25.837 12.807,-57.161 12.807,-93.975c0,-51.007 -8.372,-90.205 -25.115,-117.593c-16.744,-27.389 -37.091,-45.74 -61.042,-55.055c-17.298,-6.653 -45.13,-9.979 -83.496,-9.979l-166.993,-0Z" style="fill:#ec593a;"/></svg>