<?xml version="1.0" encoding="UTF-8" standalone="no"?><!DOCTYPE svg PUBLIC "-//W3C//DTD SVG 1.1//EN" "http://www.w3.org/Graphics/SVG/1.1/DTD/svg11.dtd"><svg width="100%" height="100%" viewBox="0 0 10667 6000" version="1.1" xmlns="http://www.w3.org/2000/svg" xmlns:xlink="http://www.w3.org/1999/xlink" xml:space="preserve" xmlns:serif="http://www.serif.com/" style="fill-rule:evenodd;clip-rule:evenodd;stroke-linejoin:round;stroke-miterlimit:2;"><g><path d="M3463.05,2258.12l-389.992,-3.307l-986.425,979.392l-510.477,-6.52l1325.81,-1312.19l700.262,2.231l1624.42,-1643.83l1286.95,1384.72l288.82,-307.867l1908.6,1881.27l-444.662,9.577l-1420.9,-1429.13l-1262.98,1421.05l-529.834,5.635l-396.153,-395.944l260.112,-256.627l282.756,299.186l232.935,-15.496l890.829,-947.232l-1053.19,-1155.15l97.311,1629.01l-239.539,-274.52l-954.105,977.775l-480.703,110.242l1336.62,-1395.61l-47.556,-805.364l-311.236,316.202l31.397,305.387l-261.348,266.435l-85.84,-244.056l-696.549,722.963l-380.396,373.934l-297.052,-19.895l482.109,-472.262Z" style="fill:#ec593a;"/><path d="M7283.57,2662.14l374.003,390.124l-333.188,-132.339l-305.21,-87.929l-467.943,-420.597l190.318,-221.881l433.065,453.921l108.955,18.701Z" style="fill:#ec593a;"/></g><g transform="matrix(10.6564,0,0,10.6564,-10068.3,-3564.24)"><text x="1041px" y="762px" style="font-family:'Arial-Black', 'Arial', sans-serif;font-weight:900;font-size:136.813px;fill:#fff;">FELSBER<tspan x="1730.27px " y="762px ">G</tspan></text><g transform="matrix(88.3278,0,0,88.3278,1589.86,853.217)"></g><text x="1295.38px" y="853.217px" style="font-family:'Arial-BoldMT', 'Arial', sans-serif;font-weight:700;font-size:88.328px;fill:#ec593a;">Design</text></g><rect x="1133.26" y="5210.73" width="2418.51" height="117.657" style="fill:#ec593a;"/><rect x="7081.49" y="5210.73" width="2418.51" height="117.657" style="fill:#ec593a;"/></svg>